<svg width="311" height="49" viewBox="0 0 311 49" fill="none" xmlns="http://www.w3.org/2000/svg">
<path d="M38.8106 17.62C38.8106 20.5 38.064 23.0867 36.5706 25.38C35.0773 27.6733 33.1306 29.3267 30.7306 30.34L42.5706 48.5H27.2106L17.8506 33.62H14.1706V48.5H0.890625V0.979997H18.3306C22.8106 0.979997 26.5706 1.64666 29.6106 2.98C32.6506 4.26 34.944 6.15333 36.4906 8.66C38.0373 11.1133 38.8106 14.1 38.8106 17.62ZM25.4506 17.62C25.4506 16.34 25.1573 15.2733 24.5706 14.42C24.0373 13.5667 23.2106 12.9267 22.0906 12.5C21.024 12.0733 19.6906 11.86 18.0906 11.86H14.1706V23.38H18.0906C19.6906 23.38 21.024 23.1667 22.0906 22.74C23.2106 22.3133 24.0373 21.6733 24.5706 20.82C25.1573 19.9667 25.4506 18.9 25.4506 17.62ZM86.7506 0.979997L69.9506 32.5V48.5H56.6706V32.5L39.8706 0.979997H54.5906L63.6306 20.26L72.6706 0.979997H86.7506ZM114.083 48.5H100.803V12.98H88.0831V0.979997H127.283L126.323 12.98H114.083V48.5ZM174.472 0.979997V48.5H161.192V30.58H144.952V48.5H131.672V0.979997H144.952V18.58H161.192V0.979997H174.472ZM235.173 0.979997V48.5H221.893V23.86H221.493C221.28 25.0333 220.986 26.2067 220.613 27.38C220.293 28.5533 219.84 29.8067 219.253 31.14L214.773 41.7H202.293L197.813 31.14C197.333 29.9133 196.906 28.6867 196.533 27.46C196.16 26.2333 195.84 25.0333 195.573 23.86H195.173V48.5H182.453V0.979997H196.613L205.733 21.86C206.266 23.0333 206.8 24.3667 207.333 25.86C207.92 27.3 208.346 28.5267 208.613 29.54H209.013C209.28 28.5267 209.68 27.3 210.213 25.86C210.8 24.3667 211.36 23.0333 211.893 21.86L221.013 0.979997H235.173ZM256.436 0.979997V48.5H243.156V0.979997H256.436ZM309.606 0.979997L293.606 23.94L310.166 48.5H294.326L285.126 34.42L276.566 48.5H261.366L277.766 24.5L261.926 0.979997H277.766L286.246 14.02L294.406 0.979997H309.606Z" fill="url(#paint0_linear_726_1272)"/>
<defs>
<linearGradient id="paint0_linear_726_1272" x1="154" y1="67.5" x2="154" y2="-21.5" gradientUnits="userSpaceOnUse">
<stop stop-color="#0D7377"/>
<stop offset="1" stop-color="#14FFEC"/>
</linearGradient>
</defs>
</svg>
